<svg xmlns="http://www.w3.org/2000/svg" height="800" width="1200" viewBox="-7.063395 -4.492475 61.21609 26.95485"><path d="M.0338 17.8088c-.0313-.0818-.043-4.113-.026-8.9583L.0385.041 4.2647.0093c4.558-.0341 4.9812.005 6.1679.5659 3.105 1.4685 3.8377 5.3324 1.4332 7.5585-.383.3546-.6963.6986-.6963.7644 0 .066.2009.215.4464.3312.6088.2883 1.4295 1.1328 1.704 1.7533.371.8387.4874 2.0235.291 2.962-.407 1.9458-1.7564 3.2731-3.9103 3.8466-.8527.227-9.5808.243-9.6668.0176zm8.2738-3.8554c.7446-.4398 1.0299-1.7125.5331-2.3783-.5733-.7684-.7396-.8198-2.6498-.8198H4.4433l-.033 1.6964-.033 1.6964h1.8003c1.453 0 1.864-.0376 2.13-.1947zM7.996 7.0058c.5375-.4719.7168-.9377.6457-1.6774-.0673-.7008-.3594-1.1547-.933-1.4498C7.373 3.7059 7.0465 3.674 5.872 3.7l-1.4286.0315-.0328 1.8155-.033 1.8154h3.2123zm7.5326 10.7662c-.1104-.2877-.0845-17.4696.0266-17.6446.0734-.1156.5909-.144 2.1708-.119l2.0746.0326.0595 3.5715.0595 3.5714 3.0637.0318 3.0637.0318.0316-3.6032L26.11.041h4.2857v17.8571H26.11l-.0318-3.2085c-.0236-2.3847-.0694-3.2324-.1786-3.3017-.0807-.0513-1.4125-.0941-2.9596-.0951-2.1992-.001-2.8415.0328-2.9444.1568-.0869.1047-.1424 1.2267-.1634 3.3035l-.0318 3.145-2.0993.0325c-1.8361.0284-2.1085.009-2.1726-.1585zm17.7196.0368c-.0313-.0818-.043-4.113-.026-8.9583L33.2527.041 37.598.0094c2.7963-.0204 4.5685.0146 4.9717.098 2.8889.598 4.9502 3.5743 4.4426 6.4146-.3832 2.144-1.723 3.745-3.7496 4.4806-.7354.267-.962.2884-3.0414.2884-1.2357 0-2.3314.0325-2.435.0723-.165.0633-.1883.4529-.1883 3.145 0 1.69-.0325 3.1575-.0723 3.2611-.062.1617-.3649.1883-2.1466.1883-1.5498 0-2.0887-.0376-2.1311-.1488zm8.3977-10.7142c1.1485-.784 1.092-2.342-.1144-3.155-.3843-.259-.4997-.272-2.14-.241l-1.7338.0329-.0329 1.8154-.0328 1.8155h1.8307c1.703 0 1.8581-.0187 2.2232-.2678z" fill="#e35302"/></svg>